<svg xmlns="http://www.w3.org/2000/svg" width="24" height="24" viewBox="0 0 500 500" version="1.1">
    <path d="M 221.880 1.491 C 177.885 6.277, 135.580 23.268, 98.310 51.120 C 85.707 60.539, 60.546 85.698, 51.134 98.292 C 17.288 143.583, 0.021 194.831, 0.021 250 C 0.021 305.169, 17.288 356.417, 51.134 401.708 C 60.546 414.302, 85.707 439.461, 98.310 448.880 C 123.414 467.640, 151.874 482.064, 179.051 489.799 C 198.419 495.312, 204.734 496.566, 223 498.528 C 287.206 505.425, 349 488.256, 401.690 448.880 C 414.293 439.461, 439.454 414.302, 448.866 401.708 C 476.590 364.610, 493.874 321.837, 498.046 280 C 498.677 273.675, 499.600 267.719, 500.097 266.764 C 501.372 264.312, 501.280 231.709, 500 232.500 C 499.393 232.875, 498.993 231.423, 498.982 228.809 C 498.958 223.301, 496.567 206.449, 494.454 196.895 C 486.507 160.971, 471.581 128.688, 448.866 98.292 C 439.454 85.698, 414.293 60.539, 401.690 51.120 C 349.001 11.744, 286.415 -5.530, 221.880 1.491 M 239.500 21.674 C 230.304 22.064, 213.591 24.010, 212.291 24.843 C 210.560 25.952, 204.521 35.987, 199.257 46.500 C 193.177 58.644, 186.264 76.030, 182.159 89.500 C 178.752 100.679, 171.956 127.289, 172.395 127.728 C 172.551 127.885, 207.589 127.897, 250.257 127.756 L 327.836 127.500 323.567 110.500 C 316.255 81.382, 307.651 58.626, 296.006 37.604 C 288.585 24.209, 288.875 24.433, 277.324 23.163 C 265.835 21.900, 249.419 21.253, 239.500 21.674 M 171 35.542 C 149.803 43.223, 124.792 57.394, 106.511 72.082 C 90.852 84.662, 73.452 103.418, 62.055 120 L 56.900 127.500 103.107 127.760 C 128.520 127.903, 149.491 127.843, 149.708 127.625 C 149.925 127.408, 152.067 119.187, 154.467 109.357 C 161.167 81.915, 174.423 44.372, 180.451 35.767 C 182.133 33.365, 182.433 31.971, 181.250 32.050 C 180.838 32.077, 176.225 33.649, 171 35.542 M 318 32.777 C 318 33.205, 318.697 34.550, 319.549 35.767 C 325.577 44.372, 338.833 81.915, 345.533 109.357 C 347.933 119.187, 350.075 127.408, 350.292 127.625 C 350.509 127.843, 371.480 127.903, 396.893 127.760 L 443.100 127.500 438.056 120.179 C 421.753 96.515, 398.930 74.363, 374 58.009 C 362.722 50.611, 340.022 39.373, 327.670 35.074 C 317.856 31.657, 318 31.691, 318 32.777 M 41.337 156.750 C 31.377 178.495, 22.090 215.753, 22.018 234.250 L 22 239 80 239 C 111.900 239, 138.002 238.662, 138.005 238.250 C 138.114 222.382, 141.947 176.623, 144.537 160.261 C 145.342 155.179, 146 150.567, 146 150.011 C 146 149.343, 128.840 149, 95.443 149 L 44.886 149 41.337 156.750 M 167.126 155.250 C 163.949 173.643, 161.389 199.286, 160.387 222.750 L 159.693 239 250 239 L 340.307 239 339.613 222.750 C 338.611 199.286, 336.051 173.643, 332.874 155.250 L 331.795 149 250 149 L 168.205 149 167.126 155.250 M 354 149.837 C 354 150.298, 354.670 155.135, 355.490 160.587 C 358.218 178.740, 361.887 222.544, 361.995 238.250 C 361.998 238.662, 388.100 239, 420 239 L 478 239 478 235.224 C 478 216.510, 468.644 178.540, 458.663 156.750 L 455.114 149 404.557 149 C 376.751 149, 354 149.377, 354 149.837 M 0.411 250 C 0.411 259.625, 0.561 263.563, 0.745 258.750 C 0.928 253.937, 0.928 246.062, 0.745 241.250 C 0.561 236.438, 0.411 240.375, 0.411 250 M 22 265.622 C 22 283.713, 31.457 321.681, 41.337 343.250 L 44.886 351 95.552 351 L 146.217 351 145.640 348.701 C 143.552 340.384, 140.065 303.665, 138.426 272.750 L 137.803 261 79.901 261 L 22 261 22 265.622 M 160.348 277.750 C 161.281 301.384, 165.391 341.851, 167.610 349.250 C 168.104 350.898, 172.900 351, 250 351 C 327.101 351, 331.896 350.898, 332.388 349.250 C 334.542 342.048, 338.751 300.623, 339.652 277.750 L 340.313 261 250 261 L 159.687 261 160.348 277.750 M 361.592 271.750 C 359.641 306.685, 356.490 340.214, 354.360 348.701 L 353.783 351 404.448 351 L 455.114 351 458.663 343.250 C 468.644 321.460, 478 283.490, 478 264.776 L 478 261 420.096 261 L 362.192 261 361.592 271.750 M 57.867 373.750 C 60.360 378.406, 71.404 392.858, 79.202 401.672 C 99.002 424.049, 122.568 441.941, 149.500 455.042 C 160.679 460.481, 179.301 468, 181.591 468 C 181.828 468, 180.273 464.512, 178.136 460.250 C 168.450 440.938, 157.732 408.566, 151.480 379.750 L 149.799 372 103.364 372 C 59.450 372, 56.981 372.095, 57.867 373.750 M 172 372.757 C 172 374.187, 179.102 401.506, 181.652 409.886 C 188.262 431.606, 203.851 466.418, 209.838 472.826 C 212.220 475.376, 213.615 475.831, 222.507 476.956 C 235.352 478.580, 264.648 478.580, 277.493 476.956 C 286.385 475.831, 287.780 475.376, 290.162 472.826 C 296.559 465.979, 312.656 429.360, 319.366 406.392 C 322.073 397.127, 327.993 374.053, 327.997 372.750 C 327.999 372.337, 292.900 372, 250 372 C 207.100 372, 172 372.341, 172 372.757 M 348.520 379.750 C 342.293 408.455, 331.311 441.534, 321.628 460.750 C 319.619 464.738, 318.170 468, 318.408 468 C 320.702 468, 339.319 460.481, 350.500 455.038 C 373.536 443.824, 393.174 429.801, 411.487 411.487 C 422.845 400.129, 436.735 382.943, 442.389 373.250 C 442.968 372.257, 433.549 372, 396.659 372 L 350.201 372 348.520 379.750" stroke="none" fill="#000000" fill-rule="evenodd"></path>
</svg>